<?xml version="1.0" encoding="UTF-8" standalone="no"?>
<svg
   xmlns:dc="http://purl.org/dc/elements/1.1/"
   xmlns:cc="http://creativecommons.org/ns#"
   xmlns:rdf="http://www.w3.org/1999/02/22-rdf-syntax-ns#"
   xmlns:svg="http://www.w3.org/2000/svg"
   xmlns="http://www.w3.org/2000/svg"
   xmlns:sodipodi="http://sodipodi.sourceforge.net/DTD/sodipodi-0.dtd"
   xmlns:inkscape="http://www.inkscape.org/namespaces/inkscape"
   inkscape:export-ydpi="768"
   inkscape:export-xdpi="768"
   inkscape:export-filename="E:\TR Design Studio Creative\Project Design\TR Creative Design\Icon Design\Project Hiring\Icon Icons\005 - Crime And Security\Send\1 - Line\26 - Theif Mask.png"
   sodipodi:docname="26 - Theif Mask.svg"
   inkscape:version="0.92.4 (5da689c313, 2019-01-14)"
   id="svg979"
   version="1.1"
   viewBox="0 0 16.933334 16.933333"
   height="48pt"
   width="48pt">
  <defs
     id="defs973" />
  <sodipodi:namedview
     inkscape:snap-nodes="false"
     inkscape:bbox-nodes="true"
     inkscape:snap-bbox="true"
     inkscape:document-rotation="0"
     inkscape:window-maximized="1"
     inkscape:window-y="-8"
     inkscape:window-x="-8"
     inkscape:window-height="716"
     inkscape:window-width="1366"
     units="pt"
     showgrid="false"
     inkscape:current-layer="layer1"
     inkscape:document-units="pt"
     inkscape:cy="32"
     inkscape:cx="32"
     inkscape:zoom="8.078125"
     inkscape:pageshadow="2"
     inkscape:pageopacity="0.0"
     borderopacity="1.0"
     bordercolor="#666666"
     pagecolor="#ffffff"
     id="base"
     showguides="false">
    <inkscape:grid
       id="grid1526"
       type="xygrid" />
    <sodipodi:guide
       inkscape:locked="false"
       id="guide1528"
       orientation="56.666615,0"
       position="0.97013909,15.963209" />
    <sodipodi:guide
       inkscape:locked="false"
       id="guide1530"
       orientation="0,56.666667"
       position="0.97013909,0.97016731" />
    <sodipodi:guide
       inkscape:locked="false"
       id="guide1532"
       orientation="-56.666615,0"
       position="15.963195,0.97016731" />
    <sodipodi:guide
       inkscape:locked="false"
       id="guide1534"
       orientation="0,-56.666667"
       position="15.963195,15.963209" />
  </sodipodi:namedview>
  <metadata
     id="metadata976">
    <rdf:RDF>
      <cc:Work
         rdf:about="">
        <dc:format>image/svg+xml</dc:format>
        <dc:type
           rdf:resource="http://purl.org/dc/dcmitype/StillImage" />
        <dc:title></dc:title>
      </cc:Work>
    </rdf:RDF>
  </metadata>
  <g
     transform="translate(0,-280.06668)"
     id="layer1"
     inkscape:groupmode="layer"
     inkscape:label="Layer 1">
    <path
       style="color:#000000;font-style:normal;font-variant:normal;font-weight:normal;font-stretch:normal;font-size:medium;line-height:normal;font-family:sans-serif;font-variant-ligatures:normal;font-variant-position:normal;font-variant-caps:normal;font-variant-numeric:normal;font-variant-alternates:normal;font-feature-settings:normal;text-indent:0;text-align:start;text-decoration:none;text-decoration-line:none;text-decoration-style:solid;text-decoration-color:#000000;letter-spacing:normal;word-spacing:normal;text-transform:none;writing-mode:lr-tb;direction:ltr;text-orientation:mixed;dominant-baseline:auto;baseline-shift:baseline;text-anchor:start;white-space:normal;shape-padding:0;clip-rule:nonzero;display:inline;overflow:visible;visibility:visible;opacity:1;isolation:auto;mix-blend-mode:normal;color-interpolation:sRGB;color-interpolation-filters:linearRGB;solid-color:#000000;solid-opacity:1;vector-effect:none;fill:#000000;fill-opacity:1;fill-rule:nonzero;stroke:none;stroke-width:0.65193003;stroke-linecap:round;stroke-linejoin:round;stroke-miterlimit:4;stroke-dasharray:none;stroke-dashoffset:0;stroke-opacity:1;color-rendering:auto;image-rendering:auto;shape-rendering:auto;text-rendering:auto;enable-background:accumulate"
       d="m 5.0940794,281.93446 c -1.0715122,0.8091 -1.8413954,2.3208 -1.8431019,4.96141 -2.88e-4,0.006 -0.042499,0.98438 0.3488844,2.08121 0.2316597,0.64921 0.6305803,1.35086 1.2758465,1.91059 0.017139,0.29066 -0.057173,0.57805 -0.1375317,0.81618 -0.090577,0.1705 -0.2319024,0.30953 -0.450748,0.44947 -0.231337,-0.006 -0.4572459,0.023 -0.6538399,0.15663 -0.3322979,0.22575 -0.5908516,0.57417 -0.6831253,0.99126 -0.092276,0.41708 0.0015,0.90212 0.3386979,1.31659 0.6742511,0.82891 2.1977917,1.41209 5.1759646,1.41209 2.978171,0 4.504259,-0.58318 5.17851,-1.41209 0.337127,-0.41447 0.431609,-0.89951 0.339336,-1.31659 -0.09228,-0.41709 -0.351463,-0.76551 -0.683763,-0.99126 -0.207093,-0.1407 -0.445855,-0.16704 -0.690129,-0.15663 -0.03807,10e-4 -0.08003,0.01 -0.11906,0.0134 -0.2312,-0.14445 -0.37704,-0.28694 -0.470483,-0.46285 -0.0869,-0.16358 -0.13528,-0.37588 -0.13879,-0.67103 0.750944,-0.58002 1.200042,-1.34908 1.452198,-2.05574 0.391386,-1.09683 0.349173,-2.07459 0.348884,-2.0812 -0.0017,-2.64059 -0.774136,-4.15232 -1.845647,-4.96142 -1.072702,-0.80999 -2.3771715,-0.89767 -3.3710549,-0.89767 -0.9938835,0 -2.2983524,0.0876 -3.3710537,0.89768 z m 3.371062,-0.2483 c 0.952227,0 2.0933806,0.0992 2.9788856,0.7678 0.885505,0.66864 1.585895,1.92664 1.585895,4.44892 -1.1e-4,0.005 -1.1e-4,0.01 0,0.0147 0,0 0.03559,0.87012 -0.310686,1.84056 -0.346276,0.9704 -1.036275,1.99956 -2.557422,2.39189 -0.4188788,0.11088 -0.2564923,0.7389 0.163619,0.63282 0.344943,-0.089 0.654513,-0.20979 0.933965,-0.35397 0.03361,0.2118 0.09194,0.40615 0.184629,0.58062 0.06182,0.11643 0.141116,0.21834 0.227284,0.31515 -0.547086,0.14134 -1.168186,0.33974 -1.8418287,0.51249 -0.4569547,0.0848 -0.2805057,0.77518 0.1610724,0.63029 0.7549703,-0.19361 1.4420893,-0.41758 1.9780713,-0.54879 0.267991,-0.0655 0.496803,-0.10805 0.666572,-0.11519 0.16977,-0.007 0.267227,0.0245 0.298589,0.0458 0.199429,0.13548 0.35894,0.35742 0.411276,0.59399 0.05234,0.23657 0.01796,0.48626 -0.206911,0.76272 -0.449744,0.55291 -1.783817,1.17206 -4.6730106,1.17206 -2.8891937,0 -4.2207218,-0.61916 -4.6704647,-1.17206 -0.2248719,-0.27645 -0.2592475,-0.52615 -0.2069113,-0.76272 0.052335,-0.23657 0.2118458,-0.45851 0.411276,-0.59399 0.031368,-0.0213 0.1262725,-0.0531 0.2960423,-0.0458 0.16977,0.007 0.4011273,0.0497 0.6691193,0.11519 0.535981,0.13121 1.2231012,0.35518 1.9780716,0.54879 0.4415773,0.14489 0.6180263,-0.54555 0.1610726,-0.63029 -0.7277344,-0.18662 -1.4060709,-0.40943 -1.9825285,-0.5507 0.072351,-0.086 0.1387006,-0.1761 0.1922684,-0.27694 0.1057062,-0.19899 0.1652748,-0.42439 0.1941781,-0.67231 0.3213084,0.185 0.6848053,0.33854 1.1001314,0.44566 0.4236932,0.11211 0.5885783,-0.52557 0.163619,-0.63282 -1.5211491,-0.39233 -2.2111468,-1.42149 -2.5574232,-2.39189 -0.3462772,-0.97044 -0.3106852,-1.84056 -0.3106852,-1.84056 0,-1.56317 0.429932,-3.55226 1.5858954,-4.46355 0.8855047,-0.66864 2.0241105,-0.7678 2.9763388,-0.7678 z m -2.8954845,3.06738 c -0.4346771,0.005 -0.7423337,0.0611 -0.7423337,0.0611 -0.1845975,0.0318 -0.3045052,0.21222 -0.2623,0.39473 0,0 0.2610464,1.2902 1.2440144,1.89594 1.1200416,0.74147 2.4912884,-0.16258 2.3167692,-1.26121 -0.00906,-0.0554 -0.032303,-0.10767 -0.067485,-0.15152 -0.5261213,-0.66958 -1.35327,-0.87011 -2.0188171,-0.92378 -0.1611906,-0.0142 -0.3276726,-0.0129 -0.469848,-0.0153 z m 5.7935151,0 c -0.144892,-10e-4 -0.303461,0.002 -0.469847,0.0153 -0.665549,0.0537 -1.495243,0.25421 -2.0213642,0.92378 -0.034269,0.0441 -0.056631,0.0962 -0.064938,0.15153 -0.1745203,1.09863 1.1973622,2.00267 2.3174052,1.2612 0.982958,-0.60573 1.241468,-1.89595 1.241468,-1.89595 0.04227,-0.18165 -0.0762,-0.36168 -0.259754,-0.39472 0,0 -0.308293,-0.0558 -0.742969,-0.0611 z m -5.689741,0.66084 c 0.075124,-0.005 0.1633345,-0.006 0.3132317,0.006 0.5311554,0.0429 1.0771556,0.24641 1.4413757,0.62583 -0.024024,0.47679 -0.5831397,0.97194 -1.2631137,0.51696 -0.4051388,-0.27028 -0.5792935,-0.70863 -0.7245079,-1.12624 0.095822,-0.007 0.1578897,-0.0176 0.2330139,-0.0229 z m 5.584694,0 c 0.07471,0.005 0.135988,0.0156 0.231741,0.0235 -0.252849,0.51098 -0.35221,0.88871 -0.721962,1.12623 -0.680423,0.45528 -1.2423998,-0.0405 -1.2656597,-0.5176 0.364213,-0.3795 0.9127097,-0.58235 1.4439217,-0.62518 v -6.6e-4 c 0.149238,-0.0123 0.237254,-0.0111 0.311959,-0.006 z"
       id="path3737"
       inkscape:connector-curvature="0"
       sodipodi:nodetypes="cccccccccsccccccccccccscccsccccccccccccscccccccccccccccsccccccccccccccccccccccccccccccccc" />
  </g>
</svg>
